STARTFONT 2.1
FONT -sco-terminal-bold-r-normal--18-14-100-100-m-108-IBM437-1
SIZE 1 100 100
FONTBOUNDINGBOX 13 21 0 -5

STARTPROPERTIES 25
FONTNAME_REGISTRY ""
FAMILY_NAME "terminal"
FOUNDRY "sco"
WEIGHT_NAME "bold"
SETWIDTH_NAME "normal"
SLANT "r"
ADD_STYLE_NAME ""
PIXEL_SIZE 18
POINT_SIZE 14
RESOLUTION_X 100
RESOLUTION_Y 100
SPACING "m"
AVERAGE_WIDTH 108
CHARSET_REGISTRY "IMB437"
CHARSET_ENCODING "1"
FULL_NAME "-sco-terminal-bold-r-normal--18-14-100-100-m-110-IBM437-1"
COPYRIGHT "Copyright (c) 1988 Bitstream, Inc., Portions Copyright 1988 Digital Equipment Corp."
CAP_HEIGHT 11
X_HEIGHT 9
WEIGHT 10
QUAD_WIDTH 11
_XMBDFED_INFO "Edited with xmbdfed 4.4."
DEFAULT_CHAR 0
FONT_DESCENT 5
FONT_ASCENT 15
ENDPROPERTIES

CHARS 254

STARTCHAR char1
ENCODING 1
SWIDTH 9360 0
DWIDTH 13 0
BBX 13 18 0 -3
BITMAP
0F80
38E0
6030
6030
C018
CD98
CD98
C018
C018
C018
D8D8
D8D8
CD98
C718
6030
6030
38E0
0F80
ENDCHAR

STARTCHAR char2
ENCODING 2
SWIDTH 9360 0
DWIDTH 13 0
BBX 12 18 1 -3
BITMAP
1F80
3FC0
7FE0
7FE0
FFF0
FFF0
FFF0
FFF0
FFF0
FFF0
FFF0
EF70
FFF0
F9F0
7FF0
7FE0
3FC0
1F80
ENDCHAR

STARTCHAR char3
ENCODING 3
SWIDTH 9360 0
DWIDTH 13 0
BBX 10 10 1 1
BITMAP
7380
FFC0
FFC0
FFC0
FFC0
FFC0
7F80
3F00
1E00
0C00
ENDCHAR

STARTCHAR char4
ENCODING 4
SWIDTH 9360 0
DWIDTH 13 0
BBX 10 16 1 -2
BITMAP
0C00
1E00
1E00
3F00
3F00
7F80
7F80
FFC0
FFC0
7F80
7F80
3F00
3F00
1E00
1E00
0C00
ENDCHAR

STARTCHAR char5
ENCODING 5
SWIDTH 9360 0
DWIDTH 13 0
BBX 9 13 1 -1
BITMAP
3E00
7F00
7F00
3E00
7F00
FF80
FF80
FF80
7F00
1C00
1C00
3E00
3E00
ENDCHAR

STARTCHAR char6
ENCODING 6
SWIDTH 9360 0
DWIDTH 13 0
BBX 10 13 1 -1
BITMAP
0C00
1E00
3F00
7F80
7F80
FFC0
FFC0
FFC0
FFC0
7F80
0C00
0C00
3F00
ENDCHAR

STARTCHAR char7
ENCODING 7
SWIDTH 9360 0
DWIDTH 13 0
BBX 7 5 2 4
BITMAP
7C
FE
FE
FE
7C
ENDCHAR

STARTCHAR char8
ENCODING 8
SWIDTH 9360 0
DWIDTH 13 0
BBX 11 21 0 -5
BITMAP
FFE0
FFE0
FFE0
FFE0
FFE0
FFE0
FFE0
F1E0
E0E0
E0E0
E0E0
F1E0
FFE0
FFE0
FFE0
FFE0
FFE0
FFE0
FFE0
FFE0
FFE0
ENDCHAR

STARTCHAR char9
ENCODING 9
SWIDTH 9360 0
DWIDTH 13 0
BBX 9 9 1 2
BITMAP
3E00
6300
C180
C180
C180
C180
C180
6300
3E00
ENDCHAR

STARTCHAR char10
ENCODING 10
SWIDTH 9360 0
DWIDTH 13 0
BBX 11 21 0 -5
BITMAP
FFE0
FFE0
FFE0
FFE0
FFE0
F1E0
FFE0
FFE0
FFE0
FFE0
FFE0
FFE0
FFE0
F1E0
FFE0
FFE0
FFE0
FFE0
FFE0
FFE0
FFE0
ENDCHAR

STARTCHAR char11
ENCODING 11
SWIDTH 9360 0
DWIDTH 13 0
BBX 11 12 1 -1
BITMAP
00E0
0FE0
07C0
03C0
07E0
3F00
6300
C180
C180
C180
6300
3E00
ENDCHAR

STARTCHAR char12
ENCODING 12
SWIDTH 9360 0
DWIDTH 13 0
BBX 10 13 1 -3
BITMAP
3F00
6180
C0C0
C0C0
C0C0
C0C0
6180
3F00
0C00
0C00
3F00
0C00
0C00
ENDCHAR

STARTCHAR char13
ENCODING 13
SWIDTH 9360 0
DWIDTH 13 0
BBX 8 14 1 -1
BITMAP
18
1C
1E
1F
1B
1B
1B
18
18
18
18
78
F8
F0
ENDCHAR

STARTCHAR char14
ENCODING 14
SWIDTH 9360 0
DWIDTH 13 0
BBX 9 16 1 -2
BITMAP
1800
1C00
1E00
1B00
1D80
1F80
1B80
1980
1980
7980
F980
F180
0180
0780
0F80
0F00
ENDCHAR

STARTCHAR char15
ENCODING 15
SWIDTH 9360 0
DWIDTH 13 0
BBX 11 11 0 1
BITMAP
0600
6660
3FC0
1980
30C0
F0E0
30C0
1980
3FC0
6660
0600
ENDCHAR

STARTCHAR char16
ENCODING 16
SWIDTH 9360 0
DWIDTH 13 0
BBX 9 16 1 -2
BITMAP
C000
E000
F000
F800
FC00
FE00
FF00
FF80
FF80
FF00
FE00
FC00
F800
F000
E000
C000
ENDCHAR

STARTCHAR char17
ENCODING 17
SWIDTH 9360 0
DWIDTH 13 0
BBX 9 16 1 -2
BITMAP
0180
0380
0780
0F80
1F80
3F80
7F80
FF80
FF80
7F80
3F80
1F80
0F80
0780
0380
0180
ENDCHAR

STARTCHAR char18
ENCODING 18
SWIDTH 9360 0
DWIDTH 13 0
BBX 8 13 2 -1
BITMAP
18
3C
7E
FF
18
18
18
18
18
FF
7E
3C
18
ENDCHAR

STARTCHAR char19
ENCODING 19
SWIDTH 9360 0
DWIDTH 13 0
BBX 6 12 3 0
BITMAP
CC
CC
CC
CC
CC
CC
CC
CC
CC
00
CC
CC
ENDCHAR

STARTCHAR char20
ENCODING 20
SWIDTH 9360 0
DWIDTH 13 0
BBX 10 9 1 -1
BITMAP
00C0
7F80
F700
7700
7700
7700
7700
7700
E000
ENDCHAR

STARTCHAR char21
ENCODING 21
SWIDTH 9360 0
DWIDTH 13 0
BBX 10 13 1 -2
BITMAP
3F80
7380
7380
F800
DC00
EF00
7380
39C0
1EC0
07C0
7380
7380
7F00
ENDCHAR

STARTCHAR char22
ENCODING 22
SWIDTH 9360 0
DWIDTH 13 0
BBX 7 4 2 5
BITMAP
FE
FE
FE
FE
ENDCHAR

STARTCHAR char23
ENCODING 23
SWIDTH 9360 0
DWIDTH 13 0
BBX 8 14 1 -2
BITMAP
18
3C
7E
FF
18
18
18
18
FF
7E
3C
18
00
FF
ENDCHAR

STARTCHAR char24
ENCODING 24
SWIDTH 9360 0
DWIDTH 13 0
BBX 9 14 1 -1
BITMAP
1C00
3E00
7F00
FF80
1C00
1C00
1C00
1C00
1C00
1C00
1C00
1C00
1C00
1C00
ENDCHAR

STARTCHAR char25
ENCODING 25
SWIDTH 9360 0
DWIDTH 13 0
BBX 9 14 1 -1
BITMAP
1C00
1C00
1C00
1C00
1C00
1C00
1C00
1C00
1C00
1C00
FF80
7F00
3E00
1C00
ENDCHAR

STARTCHAR char26
ENCODING 26
SWIDTH 9360 0
DWIDTH 13 0
BBX 9 7 1 3
BITMAP
0C00
0E00
0F00
FF80
0F00
0E00
0C00
ENDCHAR

STARTCHAR char27
ENCODING 27
SWIDTH 9360 0
DWIDTH 13 0
BBX 9 7 1 3
BITMAP
1800
3800
7800
FF80
7800
3800
1800
ENDCHAR

STARTCHAR char28
ENCODING 28
SWIDTH 9360 0
DWIDTH 13 0
BBX 9 5 1 3
BITMAP
E000
E000
E000
E000
FF80
ENDCHAR

STARTCHAR char29
ENCODING 29
SWIDTH 9360 0
DWIDTH 13 0
BBX 9 5 1 4
BITMAP
3600
7700
FF80
7700
3600
ENDCHAR

STARTCHAR char30
ENCODING 30
SWIDTH 9360 0
DWIDTH 13 0
BBX 10 5 2 5
BITMAP
0C00
1E00
3F00
7F80
FFC0
ENDCHAR

STARTCHAR char31
ENCODING 31
SWIDTH 9360 0
DWIDTH 13 0
BBX 10 5 2 3
BITMAP
FFC0
7F80
3F00
1E00
0C00
ENDCHAR

STARTCHAR char32
ENCODING 32
SWIDTH 9360 0
DWIDTH 13 0
BBX 0 0 0 0
BITMAP
ENDCHAR

STARTCHAR char33
ENCODING 33
SWIDTH 9360 0
DWIDTH 13 0
BBX 5 11 4 0
BITMAP
70
70
70
70
70
70
70
00
70
F8
70
ENDCHAR

STARTCHAR char34
ENCODING 34
SWIDTH 9360 0
DWIDTH 13 0
BBX 7 5 3 8
BITMAP
EE
EE
EE
EE
EE
ENDCHAR

STARTCHAR char35
ENCODING 35
SWIDTH 9360 0
DWIDTH 13 0
BBX 12 14 0 -3
BITMAP
1DC0
1DC0
1DC0
1DC0
1DC0
FFF0
3B80
3B80
FFF0
3B80
3B80
3B80
3B80
3B80
ENDCHAR

STARTCHAR char36
ENCODING 36
SWIDTH 9360 0
DWIDTH 13 0
BBX 9 16 2 -3
BITMAP
0C00
0C00
7F80
F780
E380
E000
F000
7F00
0380
0380
E380
F380
FF00
1800
1800
1800
ENDCHAR

STARTCHAR char37
ENCODING 37
SWIDTH 9360 0
DWIDTH 13 0
BBX 10 11 1 0
BITMAP
7800
FC00
CC00
FC00
7B80
1E00
7780
0FC0
0CC0
0FC0
0780
ENDCHAR

STARTCHAR char38
ENCODING 38
SWIDTH 9360 0
DWIDTH 13 0
BBX 8 11 2 0
BITMAP
3E
7E
60
70
30
7F
FE
FE
EE
EE
7F
ENDCHAR

STARTCHAR char39
ENCODING 39
SWIDTH 9360 0
DWIDTH 13 0
BBX 5 5 4 8
BITMAP
78
70
70
E0
60
ENDCHAR

STARTCHAR char40
ENCODING 40
SWIDTH 9360 0
DWIDTH 13 0
BBX 5 15 4 -3
BITMAP
18
30
70
60
E0
E0
E0
E0
E0
E0
E0
60
70
30
18
ENDCHAR

STARTCHAR char41
ENCODING 41
SWIDTH 9360 0
DWIDTH 13 0
BBX 5 15 4 -3
BITMAP
C0
60
70
30
38
38
38
38
38
38
38
30
70
60
C0
ENDCHAR

STARTCHAR char42
ENCODING 42
SWIDTH 9360 0
DWIDTH 13 0
BBX 9 8 2 1
BITMAP
1C00
1C00
FF80
7F00
3E00
3E00
7700
7700
ENDCHAR

STARTCHAR char43
ENCODING 43
SWIDTH 9360 0
DWIDTH 13 0
BBX 9 10 2 0
BITMAP
1C00
1C00
1C00
1C00
FF80
FF80
1C00
1C00
1C00
1C00
ENDCHAR

STARTCHAR char44
ENCODING 44
SWIDTH 9360 0
DWIDTH 13 0
BBX 5 6 4 -3
BITMAP
78
78
70
70
E0
60
ENDCHAR

STARTCHAR char45
ENCODING 45
SWIDTH 9360 0
DWIDTH 13 0
BBX 10 2 1 4
BITMAP
FFC0
FFC0
ENDCHAR

STARTCHAR char46
ENCODING 46
SWIDTH 9360 0
DWIDTH 13 0
BBX 5 3 4 0
BITMAP
70
F8
70
ENDCHAR

STARTCHAR char47
ENCODING 47
SWIDTH 9360 0
DWIDTH 13 0
BBX 9 13 2 -1
BITMAP
0380
0300
0700
0600
0E00
0C00
1C00
1800
3800
3000
7000
6000
E000
ENDCHAR

STARTCHAR char48
ENCODING 48
SWIDTH 9360 0
DWIDTH 13 0
BBX 9 11 2 0
BITMAP
3E00
7700
6300
E380
E380
E380
E380
E380
6300
7700
3E00
ENDCHAR

STARTCHAR char49
ENCODING 49
SWIDTH 9360 0
DWIDTH 13 0
BBX 9 11 2 0
BITMAP
3C00
FC00
1C00
1C00
1C00
1C00
1C00
1C00
1C00
1C00
FF80
ENDCHAR

STARTCHAR char50
ENCODING 50
SWIDTH 9360 0
DWIDTH 13 0
BBX 9 11 2 0
BITMAP
7F00
E780
E380
0380
0380
0700
0E00
1C00
3800
7380
FF80
ENDCHAR

STARTCHAR char51
ENCODING 51
SWIDTH 9360 0
DWIDTH 13 0
BBX 9 11 2 0
BITMAP
7F00
E780
0380
0380
0700
1E00
0700
0380
0380
E380
7F00
ENDCHAR

STARTCHAR char52
ENCODING 52
SWIDTH 9360 0
DWIDTH 13 0
BBX 9 11 2 0
BITMAP
0F00
0F00
1F00
3F00
3700
6700
E700
FF80
0700
0700
1F80
ENDCHAR

STARTCHAR char53
ENCODING 53
SWIDTH 9360 0
DWIDTH 13 0
BBX 9 11 2 0
BITMAP
FF00
E000
E000
E000
FE00
E700
0380
0380
0380
E700
7E00
ENDCHAR

STARTCHAR char54
ENCODING 54
SWIDTH 9360 0
DWIDTH 13 0
BBX 9 11 2 0
BITMAP
0F80
3C00
7000
7000
FE00
F700
E380
E380
E380
7700
3E00
ENDCHAR

STARTCHAR char55
ENCODING 55
SWIDTH 9360 0
DWIDTH 13 0
BBX 9 11 2 0
BITMAP
FF80
E380
0380
0700
0700
0600
0E00
0E00
0C00
1C00
1C00
ENDCHAR

STARTCHAR char56
ENCODING 56
SWIDTH 9360 0
DWIDTH 13 0
BBX 9 11 2 0
BITMAP
3E00
7700
E380
E380
7700
3E00
7700
E380
E380
7700
3E00
ENDCHAR

STARTCHAR char57
ENCODING 57
SWIDTH 9360 0
DWIDTH 13 0
BBX 9 11 2 0
BITMAP
3E00
7700
E380
E380
E380
7780
3F80
0700
0700
1E00
F800
ENDCHAR

STARTCHAR char58
ENCODING 58
SWIDTH 9360 0
DWIDTH 13 0
BBX 5 9 4 0
BITMAP
70
F8
70
00
00
00
70
F8
70
ENDCHAR

STARTCHAR char59
ENCODING 59
SWIDTH 9360 0
DWIDTH 13 0
BBX 6 12 3 -3
BITMAP
38
7C
38
00
00
00
78
78
70
70
E0
60
ENDCHAR

STARTCHAR char60
ENCODING 60
SWIDTH 9360 0
DWIDTH 13 0
BBX 10 9 1 1
BITMAP
01C0
07C0
1F00
7C00
F000
7C00
1F00
07C0
01C0
ENDCHAR

STARTCHAR char61
ENCODING 61
SWIDTH 9360 0
DWIDTH 13 0
BBX 9 6 2 2
BITMAP
FF80
FF80
0000
0000
FF80
FF80
ENDCHAR

STARTCHAR char62
ENCODING 62
SWIDTH 9360 0
DWIDTH 13 0
BBX 10 9 1 1
BITMAP
E000
F800
3E00
0F80
03C0
0F80
3E00
F800
E000
ENDCHAR

STARTCHAR char63
ENCODING 63
SWIDTH 9360 0
DWIDTH 13 0
BBX 9 11 2 0
BITMAP
7F00
E380
0380
0380
0F00
3C00
3800
0000
3800
7C00
3800
ENDCHAR

STARTCHAR char64
ENCODING 64
SWIDTH 9360 0
DWIDTH 13 0
BBX 11 14 1 -2
BITMAP
1E00
7380
6180
E1C0
E7C0
EDC0
FDC0
FDC0
FDC0
EFE0
E000
7000
78C0
1F80
ENDCHAR

STARTCHAR char65
ENCODING 65
SWIDTH 9360 0
DWIDTH 13 0
BBX 12 11 0 0
BITMAP
0F00
0F00
1F80
1F80
1F80
39C0
39C0
3FC0
70E0
70E0
FFF0
ENDCHAR

STARTCHAR char66
ENCODING 66
SWIDTH 9360 0
DWIDTH 13 0
BBX 10 11 1 0
BITMAP
FF00
7380
7380
7380
7300
7F80
71C0
71C0
71C0
71C0
FF80
ENDCHAR

STARTCHAR char67
ENCODING 67
SWIDTH 9360 0
DWIDTH 13 0
BBX 10 11 1 0
BITMAP
3FC0
73C0
E1C0
E1C0
E000
E000
E000
E000
E0C0
71C0
3F80
ENDCHAR

STARTCHAR char68
ENCODING 68
SWIDTH 9360 0
DWIDTH 13 0
BBX 10 11 1 0
BITMAP
FF00
7380
71C0
71C0
71C0
71C0
71C0
71C0
71C0
7380
FF00
ENDCHAR

STARTCHAR char69
ENCODING 69
SWIDTH 9360 0
DWIDTH 13 0
BBX 10 11 1 0
BITMAP
FFC0
38C0
38C0
3B00
3B00
3F00
3B00
38C0
38C0
38C0
FFC0
ENDCHAR

STARTCHAR char70
ENCODING 70
SWIDTH 9360 0
DWIDTH 13 0
BBX 10 11 1 0
BITMAP
FFC0
38C0
38C0
3B00
3B00
3F00
3B00
3B00
3800
3800
FE00
ENDCHAR

STARTCHAR char71
ENCODING 71
SWIDTH 9360 0
DWIDTH 13 0
BBX 11 11 1 0
BITMAP
3FC0
73C0
E1C0
E1C0
E000
E000
E7E0
E1C0
E1C0
71C0
3F80
ENDCHAR

STARTCHAR char72
ENCODING 72
SWIDTH 9360 0
DWIDTH 13 0
BBX 10 11 1 0
BITMAP
FFC0
7380
7380
7380
7380
7F80
7380
7380
7380
7380
FFC0
ENDCHAR

STARTCHAR char73
ENCODING 73
SWIDTH 9360 0
DWIDTH 13 0
BBX 9 11 2 0
BITMAP
FF80
1C00
1C00
1C00
1C00
1C00
1C00
1C00
1C00
1C00
FF80
ENDCHAR

STARTCHAR char74
ENCODING 74
SWIDTH 9360 0
DWIDTH 13 0
BBX 10 11 1 0
BITMAP
3FC0
0700
0700
0700
0700
0700
C700
C700
C700
E700
7E00
ENDCHAR

STARTCHAR char75
ENCODING 75
SWIDTH 9360 0
DWIDTH 13 0
BBX 10 11 1 0
BITMAP
FFC0
7380
7700
7E00
7C00
7E00
7700
7700
7380
7380
FBC0
ENDCHAR

STARTCHAR char76
ENCODING 76
SWIDTH 9360 0
DWIDTH 13 0
BBX 10 11 1 0
BITMAP
FE00
3800
3800
3800
3800
3800
3800
38C0
38C0
38C0
FFC0
ENDCHAR

STARTCHAR char77
ENCODING 77
SWIDTH 9360 0
DWIDTH 13 0
BBX 12 11 0 0
BITMAP
F9F0
79E0
7FE0
7FE0
7FE0
7FE0
76E0
76E0
70E0
70E0
F9F0
ENDCHAR

STARTCHAR char78
ENCODING 78
SWIDTH 9360 0
DWIDTH 13 0
BBX 11 11 1 0
BITMAP
F3E0
79C0
79C0
7DC0
7DC0
77C0
77C0
73C0
73C0
71C0
FDC0
ENDCHAR

STARTCHAR char79
ENCODING 79
SWIDTH 9360 0
DWIDTH 13 0
BBX 10 11 1 0
BITMAP
3F00
7380
E1C0
E1C0
E1C0
E1C0
E1C0
E1C0
E1C0
7380
3F00
ENDCHAR

STARTCHAR char80
ENCODING 80
SWIDTH 9360 0
DWIDTH 13 0
BBX 10 11 1 0
BITMAP
FF80
39C0
39C0
39C0
39C0
39C0
3F80
3800
3800
3800
FE00
ENDCHAR

STARTCHAR char81
ENCODING 81
SWIDTH 9360 0
DWIDTH 13 0
BBX 11 14 1 -3
BITMAP
3F00
7380
E1C0
E1C0
E1C0
E1C0
E1C0
E1C0
E1C0
7380
3F00
1800
3FE0
3BC0
ENDCHAR

STARTCHAR char82
ENCODING 82
SWIDTH 9360 0
DWIDTH 13 0
BBX 11 11 1 0
BITMAP
FF80
73C0
71C0
71C0
7380
7F00
7380
7380
71C0
71C0
F9E0
ENDCHAR

STARTCHAR char83
ENCODING 83
SWIDTH 9360 0
DWIDTH 13 0
BBX 9 11 2 0
BITMAP
3F80
F780
E380
E000
F000
7F00
0780
0380
E380
F780
FE00
ENDCHAR

STARTCHAR char84
ENCODING 84
SWIDTH 9360 0
DWIDTH 13 0
BBX 11 11 1 0
BITMAP
FFE0
CE60
CE60
CE60
CE60
0E00
0E00
0E00
0E00
0E00
3F80
ENDCHAR

STARTCHAR char85
ENCODING 85
SWIDTH 9360 0
DWIDTH 13 0
BBX 11 11 1 0
BITMAP
FBE0
71C0
71C0
71C0
71C0
71C0
71C0
71C0
71C0
3B80
1F00
ENDCHAR

STARTCHAR char86
ENCODING 86
SWIDTH 9360 0
DWIDTH 13 0
BBX 12 11 0 0
BITMAP
F9F0
70E0
70E0
39C0
39C0
39C0
1F80
1F80
0F00
0F00
0600
ENDCHAR

STARTCHAR char87
ENCODING 87
SWIDTH 9360 0
DWIDTH 13 0
BBX 12 11 0 0
BITMAP
F9F0
70E0
70E0
76E0
76E0
7FE0
7FE0
3FC0
3FC0
39C0
39C0
ENDCHAR

STARTCHAR char88
ENCODING 88
SWIDTH 9360 0
DWIDTH 13 0
BBX 10 11 1 0
BITMAP
FFC0
7380
3F00
3F00
1E00
1E00
1E00
3F00
3F00
7380
FFC0
ENDCHAR

STARTCHAR char89
ENCODING 89
SWIDTH 9360 0
DWIDTH 13 0
BBX 11 11 1 0
BITMAP
FBE0
71C0
3180
3B80
1B00
1F00
0E00
0E00
0E00
0E00
3F80
ENDCHAR

STARTCHAR char90
ENCODING 90
SWIDTH 9360 0
DWIDTH 13 0
BBX 9 11 2 0
BITMAP
FF80
C380
C700
0700
0E00
0E00
1C00
3800
3980
7180
FF80
ENDCHAR

STARTCHAR char91
ENCODING 91
SWIDTH 9360 0
DWIDTH 13 0
BBX 5 14 4 -1
BITMAP
F8
E0
E0
E0
E0
E0
E0
E0
E0
E0
E0
E0
E0
F8
ENDCHAR

STARTCHAR char92
ENCODING 92
SWIDTH 9360 0
DWIDTH 13 0
BBX 9 13 2 -1
BITMAP
E000
6000
7000
3000
3800
1800
1C00
0C00
0E00
0600
0700
0300
0380
ENDCHAR

STARTCHAR char93
ENCODING 93
SWIDTH 9360 0
DWIDTH 13 0
BBX 5 14 4 -1
BITMAP
F8
38
38
38
38
38
38
38
38
38
38
38
38
F8
ENDCHAR

STARTCHAR char94
ENCODING 94
SWIDTH 9360 0
DWIDTH 13 0
BBX 8 4 2 9
BITMAP
18
3C
7E
E7
ENDCHAR

STARTCHAR char95
ENCODING 95
SWIDTH 9360 0
DWIDTH 13 0
BBX 11 2 1 0
BITMAP
FFE0
FFE0
ENDCHAR

STARTCHAR char96
ENCODING 96
SWIDTH 9360 0
DWIDTH 13 0
BBX 7 5 3 8
BITMAP
E0
F0
38
1C
06
ENDCHAR

STARTCHAR char97
ENCODING 97
SWIDTH 9360 0
DWIDTH 13 0
BBX 10 9 1 0
BITMAP
3F00
7380
0380
3F80
7380
E380
E380
F780
7FC0
ENDCHAR

STARTCHAR char98
ENCODING 98
SWIDTH 9360 0
DWIDTH 13 0
BBX 10 12 1 0
BITMAP
F000
7000
7000
7F00
7B80
71C0
71C0
71C0
71C0
71C0
7B80
FF00
ENDCHAR

STARTCHAR char99
ENCODING 99
SWIDTH 9360 0
DWIDTH 13 0
BBX 9 9 2 0
BITMAP
3F80
7780
E380
E180
E000
E000
E180
7380
3F00
ENDCHAR

STARTCHAR char100
ENCODING 100
SWIDTH 9360 0
DWIDTH 13 0
BBX 10 12 1 0
BITMAP
0F80
0380
0380
3F80
7780
E380
E380
E380
E380
E380
7780
3FC0
ENDCHAR

STARTCHAR char101
ENCODING 101
SWIDTH 9360 0
DWIDTH 13 0
BBX 10 9 1 0
BITMAP
3F00
7380
E1C0
E1C0
FFC0
E000
E000
71C0
3F00
ENDCHAR

STARTCHAR char102
ENCODING 102
SWIDTH 9360 0
DWIDTH 13 0
BBX 10 12 1 0
BITMAP
1FC0
3800
3800
FF80
3800
3800
3800
3800
3800
3800
3800
FF80
ENDCHAR

STARTCHAR char103
ENCODING 103
SWIDTH 9360 0
DWIDTH 13 0
BBX 10 12 1 -3
BITMAP
3FC0
7780
E380
E380
E380
E380
E380
7780
3F80
0380
0380
7F00
ENDCHAR

STARTCHAR char104
ENCODING 104
SWIDTH 9360 0
DWIDTH 13 0
BBX 10 12 1 0
BITMAP
F000
7000
7000
7F00
7B80
7380
7380
7380
7380
7380
7380
FFC0
ENDCHAR

STARTCHAR char105
ENCODING 105
SWIDTH 9360 0
DWIDTH 13 0
BBX 9 13 2 0
BITMAP
1C00
1C00
0000
0000
7C00
1C00
1C00
1C00
1C00
1C00
1C00
1C00
FF80
ENDCHAR

STARTCHAR char106
ENCODING 106
SWIDTH 9360 0
DWIDTH 13 0
BBX 7 16 3 -3
BITMAP
0E
0E
00
00
FE
0E
0E
0E
0E
0E
0E
0E
0E
0E
0E
FC
ENDCHAR

STARTCHAR char107
ENCODING 107
SWIDTH 9360 0
DWIDTH 13 0
BBX 10 12 1 0
BITMAP
F000
7000
7000
77C0
7700
7E00
7C00
7C00
7E00
7700
7380
F7C0
ENDCHAR

STARTCHAR char108
ENCODING 108
SWIDTH 9360 0
DWIDTH 13 0
BBX 10 12 1 0
BITMAP
7C00
1C00
1C00
1C00
1C00
1C00
1C00
1C00
1C00
1C00
1C00
FFC0
ENDCHAR

STARTCHAR char109
ENCODING 109
SWIDTH 9360 0
DWIDTH 13 0
BBX 11 9 1 0
BITMAP
FFC0
EEE0
EEE0
EEE0
EEE0
EEE0
EEE0
EEE0
EEE0
ENDCHAR

STARTCHAR char110
ENCODING 110
SWIDTH 9360 0
DWIDTH 13 0
BBX 10 9 1 0
BITMAP
FF00
7B80
7380
7380
7380
7380
7380
7380
FFC0
ENDCHAR

STARTCHAR char111
ENCODING 111
SWIDTH 9360 0
DWIDTH 13 0
BBX 10 9 1 0
BITMAP
3F00
7380
E1C0
E1C0
E1C0
E1C0
E1C0
7380
3F00
ENDCHAR

STARTCHAR char112
ENCODING 112
SWIDTH 9360 0
DWIDTH 13 0
BBX 10 12 1 -3
BITMAP
FF00
7B80
71C0
71C0
71C0
71C0
71C0
7B80
7F00
7000
7000
FC00
ENDCHAR

STARTCHAR char113
ENCODING 113
SWIDTH 9360 0
DWIDTH 13 0
BBX 10 12 1 -3
BITMAP
3FC0
7780
E380
E380
E380
E380
E380
7780
3F80
0380
0380
0FC0
ENDCHAR

STARTCHAR char114
ENCODING 114
SWIDTH 9360 0
DWIDTH 13 0
BBX 10 9 1 0
BITMAP
FBC0
3FC0
3800
3800
3800
3800
3800
3800
FF00
ENDCHAR

STARTCHAR char115
ENCODING 115
SWIDTH 9360 0
DWIDTH 13 0
BBX 9 9 2 0
BITMAP
7F80
E780
E380
E000
7F00
0380
E380
F380
FF00
ENDCHAR

STARTCHAR char116
ENCODING 116
SWIDTH 9360 0
DWIDTH 13 0
BBX 10 12 1 0
BITMAP
3800
3800
3800
FF80
3800
3800
3800
3800
3800
3800
39C0
1F00
ENDCHAR

STARTCHAR char117
ENCODING 117
SWIDTH 9360 0
DWIDTH 13 0
BBX 10 9 1 0
BITMAP
F780
7380
7380
7380
7380
7380
7380
7780
3FC0
ENDCHAR

STARTCHAR char118
ENCODING 118
SWIDTH 9360 0
DWIDTH 13 0
BBX 11 9 1 0
BITMAP
FBE0
71C0
3180
3B80
3B80
1B00
1F00
0E00
0E00
ENDCHAR

STARTCHAR char119
ENCODING 119
SWIDTH 9360 0
DWIDTH 13 0
BBX 12 9 0 0
BITMAP
F9F0
E070
6660
76E0
7FE0
7FE0
3FC0
39C0
39C0
ENDCHAR

STARTCHAR char120
ENCODING 120
SWIDTH 9360 0
DWIDTH 13 0
BBX 10 9 1 0
BITMAP
FFC0
7380
3F00
1E00
1E00
3F00
3300
7380
FFC0
ENDCHAR

STARTCHAR char121
ENCODING 121
SWIDTH 9360 0
DWIDTH 13 0
BBX 11 12 1 -3
BITMAP
FBE0
71C0
3180
3B80
3B80
1B00
1F00
0E00
0E00
0C00
1C00
7E00
ENDCHAR

STARTCHAR char122
ENCODING 122
SWIDTH 9360 0
DWIDTH 13 0
BBX 8 9 2 0
BITMAP
FF
C7
CE
1C
18
38
73
E3
FF
ENDCHAR

STARTCHAR char123
ENCODING 123
SWIDTH 9360 0
DWIDTH 13 0
BBX 7 15 3 -2
BITMAP
1E
38
38
38
38
38
70
E0
70
38
38
38
38
38
1E
ENDCHAR

STARTCHAR char124
ENCODING 124
SWIDTH 9360 0
DWIDTH 13 0
BBX 3 18 5 -4
BITMAP
E0
E0
E0
E0
E0
E0
E0
E0
E0
E0
E0
E0
E0
E0
E0
E0
E0
E0
ENDCHAR

STARTCHAR char125
ENCODING 125
SWIDTH 9360 0
DWIDTH 13 0
BBX 7 15 3 -2
BITMAP
F0
38
38
38
38
38
1C
0E
1C
38
38
38
38
38
F0
ENDCHAR

STARTCHAR char126
ENCODING 126
SWIDTH 9360 0
DWIDTH 13 0
BBX 8 3 2 10
BITMAP
73
FF
CE
ENDCHAR

STARTCHAR char128
ENCODING 128
SWIDTH 9360 0
DWIDTH 13 0
BBX 9 16 1 -2
BITMAP
3E00
7700
E380
E000
E000
E000
E000
E000
E000
E380
7700
3E00
0E00
0E00
1C00
7800
ENDCHAR

STARTCHAR char129
ENCODING 129
SWIDTH 9360 0
DWIDTH 13 0
BBX 10 13 1 0
BITMAP
7380
7380
0000
0000
F780
7380
7380
7380
7380
7380
7380
7780
3FC0
ENDCHAR

STARTCHAR char130
ENCODING 130
SWIDTH 9360 0
DWIDTH 13 0
BBX 10 14 1 0
BITMAP
0780
0E00
1800
0000
0000
3F00
7380
E1C0
E1C0
FFC0
E000
E000
71C0
3F00
ENDCHAR

STARTCHAR char226
ENCODING 131
SWIDTH 9360 0
DWIDTH 13 0
BBX 10 14 1 0
BITMAP
0C00
1E00
7380
0000
0000
3F00
7380
0380
3F80
7380
E380
E380
F780
7FC0
ENDCHAR

STARTCHAR char228
ENCODING 132
SWIDTH 9360 0
DWIDTH 13 0
BBX 10 13 1 0
BITMAP
7380
7380
0000
0000
3F00
7380
0380
3F80
7380
E380
E380
F780
7FC0
ENDCHAR

STARTCHAR char224
ENCODING 133
SWIDTH 9360 0
DWIDTH 13 0
BBX 10 14 1 0
BITMAP
3C00
0E00
0300
0000
0000
3F00
7380
0380
3F80
7380
E380
E380
F780
7FC0
ENDCHAR

STARTCHAR char229
ENCODING 134
SWIDTH 9360 0
DWIDTH 13 0
BBX 10 14 1 0
BITMAP
1F00
3B80
3B80
1F00
0000
3F00
7380
0380
3F80
7380
E380
E380
F780
7FC0
ENDCHAR

STARTCHAR char231
ENCODING 135
SWIDTH 9360 0
DWIDTH 13 0
BBX 9 14 2 -5
BITMAP
3F80
7780
E380
E180
E000
E000
E180
7380
3F00
1800
1E00
0700
6700
3E00
ENDCHAR

STARTCHAR char234
ENCODING 136
SWIDTH 9360 0
DWIDTH 13 0
BBX 10 14 1 0
BITMAP
0C00
1E00
7380
0000
0000
3F00
7380
E1C0
E1C0
FFC0
E000
E000
71C0
3F00
ENDCHAR

STARTCHAR char235
ENCODING 137
SWIDTH 9360 0
DWIDTH 13 0
BBX 10 13 1 0
BITMAP
7380
7380
0000
0000
3F00
7380
E1C0
E1C0
FFC0
E000
E000
71C0
3F00
ENDCHAR

STARTCHAR char232
ENCODING 138
SWIDTH 9360 0
DWIDTH 13 0
BBX 10 14 1 0
BITMAP
3C00
0E00
0300
0000
0000
3F00
7380
E1C0
E1C0
FFC0
E000
E000
71C0
3F00
ENDCHAR

STARTCHAR char239
ENCODING 139
SWIDTH 9360 0
DWIDTH 13 0
BBX 9 13 2 0
BITMAP
E700
E700
0000
0000
7C00
1C00
1C00
1C00
1C00
1C00
1C00
1C00
FF80
ENDCHAR

STARTCHAR char238
ENCODING 140
SWIDTH 9360 0
DWIDTH 13 0
BBX 9 14 2 0
BITMAP
0C00
1E00
7380
0000
0000
7C00
1C00
1C00
1C00
1C00
1C00
1C00
1C00
FF80
ENDCHAR

STARTCHAR char236
ENCODING 141
SWIDTH 9360 0
DWIDTH 13 0
BBX 9 14 2 0
BITMAP
7800
1C00
0600
0000
0000
7C00
1C00
1C00
1C00
1C00
1C00
1C00
1C00
FF80
ENDCHAR

STARTCHAR char196
ENCODING 142
SWIDTH 9360 0
DWIDTH 13 0
BBX 12 15 0 0
BITMAP
39C0
39C0
0000
0000
0F00
0F00
1F80
1F80
1F80
39C0
39C0
3FC0
70E0
70E0
FFF0
ENDCHAR

STARTCHAR char197
ENCODING 143
SWIDTH 9360 0
DWIDTH 13 0
BBX 12 15 0 0
BITMAP
1F80
39C0
39C0
39C0
1F80
0F00
1F80
1F80
1F80
39C0
39C0
3FC0
70E0
70E0
FFF0
ENDCHAR

STARTCHAR char202
ENCODING 144
SWIDTH 9360 0
DWIDTH 13 0
BBX 10 15 1 0
BITMAP
0C00
1E00
7380
0000
FFC0
38C0
38C0
3B00
3B00
3F00
3B00
38C0
38C0
38C0
FFC0
ENDCHAR

STARTCHAR char230
ENCODING 145
SWIDTH 9360 0
DWIDTH 13 0
BBX 11 9 1 0
BITMAP
7FC0
EFE0
0EE0
0EE0
7FE0
EE00
EE00
EFE0
7FC0
ENDCHAR

STARTCHAR char198
ENCODING 146
SWIDTH 9360 0
DWIDTH 13 0
BBX 12 11 0 0
BITMAP
1FF0
1F30
1F30
1FF0
3FC0
37C0
37C0
7F30
6730
6730
FFF0
ENDCHAR

STARTCHAR char244
ENCODING 147
SWIDTH 9360 0
DWIDTH 13 0
BBX 10 14 1 0
BITMAP
0C00
1E00
7380
0000
0000
3F00
7380
E1C0
E1C0
E1C0
E1C0
E1C0
7380
3F00
ENDCHAR

STARTCHAR char246
ENCODING 148
SWIDTH 9360 0
DWIDTH 13 0
BBX 10 13 1 0
BITMAP
7380
7380
0000
0000
3F00
7380
E1C0
E1C0
E1C0
E1C0
E1C0
7380
3F00
ENDCHAR

STARTCHAR char242
ENCODING 149
SWIDTH 9360 0
DWIDTH 13 0
BBX 10 14 1 0
BITMAP
7800
1C00
0600
0000
0000
3F00
7380
E1C0
E1C0
E1C0
E1C0
E1C0
7380
3F00
ENDCHAR

STARTCHAR char251
ENCODING 150
SWIDTH 9360 0
DWIDTH 13 0
BBX 10 14 1 0
BITMAP
0C00
1E00
7380
0000
0000
F780
7380
7380
7380
7380
7380
7380
7780
3FC0
ENDCHAR

STARTCHAR char151
ENCODING 151
SWIDTH 9360 0
DWIDTH 13 0
BBX 10 14 1 0
BITMAP
7800
1C00
0600
0000
0000
F780
7380
7380
7380
7380
7380
7380
7780
3FC0
ENDCHAR

STARTCHAR char255
ENCODING 152
SWIDTH 9360 0
DWIDTH 13 0
BBX 11 16 1 -3
BITMAP
39C0
39C0
0000
0000
FBE0
71C0
3180
3B80
3B80
1B00
1F00
0E00
0E00
0C00
1C00
7E00
ENDCHAR

STARTCHAR char214
ENCODING 153
SWIDTH 9360 0
DWIDTH 13 0
BBX 10 15 1 0
BITMAP
7380
7380
0000
0000
3F00
7380
E1C0
E1C0
E1C0
E1C0
E1C0
E1C0
E1C0
7380
3F00
ENDCHAR

STARTCHAR char220
ENCODING 154
SWIDTH 9360 0
DWIDTH 13 0
BBX 11 15 1 0
BITMAP
3B80
3B80
0000
0000
FBE0
71C0
71C0
71C0
71C0
71C0
71C0
71C0
71C0
3B80
1F00
ENDCHAR

STARTCHAR char162
ENCODING 155
SWIDTH 9360 0
DWIDTH 13 0
BBX 9 13 2 -1
BITMAP
0C00
0C00
0C00
3F80
7380
E180
E000
E000
E000
7380
3F00
1800
1800
ENDCHAR

STARTCHAR char163
ENCODING 156
SWIDTH 9360 0
DWIDTH 13 0
BBX 9 11 2 0
BITMAP
3F80
7380
7180
7000
3800
FF00
3800
3800
7000
FD80
CF80
ENDCHAR

STARTCHAR char165
ENCODING 157
SWIDTH 9360 0
DWIDTH 13 0
BBX 11 11 1 0
BITMAP
FBE0
71C0
3180
FBE0
1B00
1F00
FFE0
0E00
0E00
0E00
3F80
ENDCHAR

STARTCHAR char158
ENCODING 158
SWIDTH 9360 0
DWIDTH 13 0
BBX 8 10 2 1
BITMAP
FE
E7
E7
FE
E0
E6
EF
E6
E6
F7
ENDCHAR

STARTCHAR char159
ENCODING 159
SWIDTH 9360 0
DWIDTH 13 0
BBX 9 12 2 0
BITMAP
0F00
1F80
3980
3800
3800
FF00
3800
3800
3800
3800
7000
E000
ENDCHAR

STARTCHAR char225
ENCODING 160
SWIDTH 9360 0
DWIDTH 13 0
BBX 10 14 1 0
BITMAP
0780
0E00
1800
0000
0000
3F00
7380
0380
3F80
7380
E380
E380
F780
7FC0
ENDCHAR

STARTCHAR char237
ENCODING 161
SWIDTH 9360 0
DWIDTH 13 0
BBX 9 14 2 0
BITMAP
0F00
1C00
3000
0000
0000
7C00
1C00
1C00
1C00
1C00
1C00
1C00
1C00
FF80
ENDCHAR

STARTCHAR char243
ENCODING 162
SWIDTH 9360 0
DWIDTH 13 0
BBX 10 14 1 0
BITMAP
0780
0E00
1800
0000
0000
3F00
7380
E1C0
E1C0
E1C0
E1C0
E1C0
7380
3F00
ENDCHAR

STARTCHAR char250
ENCODING 163
SWIDTH 9360 0
DWIDTH 13 0
BBX 10 14 1 0
BITMAP
0780
0E00
1800
0000
0000
F780
7380
7380
7380
7380
7380
7380
7780
3FC0
ENDCHAR

STARTCHAR char241
ENCODING 164
SWIDTH 9360 0
DWIDTH 13 0
BBX 10 13 1 0
BITMAP
3EC0
6F80
0000
0000
FF00
7B80
7380
7380
7380
7380
7380
7380
FFC0
ENDCHAR

STARTCHAR char209
ENCODING 165
SWIDTH 9360 0
DWIDTH 13 0
BBX 11 15 1 0
BITMAP
3EC0
6F80
0000
0000
F3E0
79C0
79C0
7DC0
7DC0
77C0
77C0
73C0
73C0
71C0
FDC0
ENDCHAR

STARTCHAR char225
ENCODING 166
SWIDTH 9360 0
DWIDTH 13 0
BBX 10 11 1 0
BITMAP
3F00
7380
0380
3F80
7380
E380
E380
F780
7FC0
0000
FFC0
ENDCHAR

STARTCHAR char242
ENCODING 167
SWIDTH 9360 0
DWIDTH 13 0
BBX 10 11 1 0
BITMAP
3F00
7380
E1C0
E1C0
E1C0
E1C0
E1C0
7380
3F00
0000
FFC0
ENDCHAR

STARTCHAR char191
ENCODING 168
SWIDTH 9360 0
DWIDTH 13 0
BBX 9 14 2 0
BITMAP
0E00
1F00
0E00
0000
0E00
0E00
0E00
0E00
1C00
7800
E000
E000
E380
7F00
ENDCHAR

STARTCHAR char172
ENCODING 169
SWIDTH 9360 0
DWIDTH 13 0
BBX 9 5 2 2
BITMAP
FF80
FF80
E000
E000
E000
ENDCHAR

STARTCHAR char172
ENCODING 170
SWIDTH 9360 0
DWIDTH 13 0
BBX 9 5 2 2
BITMAP
FF80
FF80
0380
0380
0380
ENDCHAR

STARTCHAR char189
ENCODING 171
SWIDTH 9360 0
DWIDTH 13 0
BBX 11 15 1 -4
BITMAP
F000
7000
7000
7000
7000
70E0
FBC0
0F00
3FC0
F6E0
C0E0
01C0
0380
0760
07E0
ENDCHAR

STARTCHAR char188
ENCODING 172
SWIDTH 9360 0
DWIDTH 13 0
BBX 11 15 1 -4
BITMAP
F000
7000
7000
7000
7000
70E0
FBC0
0F00
3DC0
F3C0
C7C0
0DC0
1FE0
01C0
01C0
ENDCHAR

STARTCHAR char161
ENCODING 173
SWIDTH 9360 0
DWIDTH 13 0
BBX 5 11 4 0
BITMAP
70
F8
70
00
70
70
70
70
70
70
70
ENDCHAR

STARTCHAR char174
ENCODING 174
SWIDTH 9360 0
DWIDTH 13 0
BBX 9 9 2 0
BITMAP
1980
3B80
7700
EE00
CC00
EE00
7700
3B80
1980
ENDCHAR

STARTCHAR char175
ENCODING 175
SWIDTH 9360 0
DWIDTH 13 0
BBX 9 9 2 0
BITMAP
CC00
EE00
7700
3B80
1980
3B80
7700
EE00
CC00
ENDCHAR

STARTCHAR char176
ENCODING 176
SWIDTH 9360 0
DWIDTH 13 0
BBX 8 21 3 -5
BITMAP
DB
00
DB
00
DB
00
DB
00
DB
00
DB
00
DB
00
DB
00
DB
00
DB
00
DB
ENDCHAR

STARTCHAR char177
ENCODING 177
SWIDTH 9360 0
DWIDTH 13 0
BBX 7 20 3 -4
BITMAP
AA
AA
00
AA
AA
00
AA
AA
00
AA
AA
00
AA
AA
00
AA
AA
00
AA
AA
ENDCHAR

STARTCHAR char178
ENCODING 178
SWIDTH 9360 0
DWIDTH 13 0
BBX 8 21 2 -5
BITMAP
DB
DB
00
DB
DB
00
DB
DB
00
DB
DB
00
DB
DB
00
DB
DB
00
91
DB
DB
ENDCHAR

STARTCHAR char179
ENCODING 179
SWIDTH 9360 0
DWIDTH 13 0
BBX 2 21 6 -5
BITMAP
C0
C0
C0
C0
C0
C0
C0
C0
C0
C0
C0
C0
C0
C0
C0
C0
C0
C0
C0
C0
C0
ENDCHAR

STARTCHAR char180
ENCODING 180
SWIDTH 9360 0
DWIDTH 13 0
BBX 8 21 0 -5
BITMAP
03
03
03
03
03
03
03
03
FF
FF
03
03
03
03
03
03
03
03
03
03
03
ENDCHAR

STARTCHAR char181
ENCODING 181
SWIDTH 9360 0
DWIDTH 13 0
BBX 8 21 0 -5
BITMAP
03
03
03
03
03
03
03
FF
FF
03
FF
FF
03
03
03
03
03
03
03
03
03
ENDCHAR

STARTCHAR char182
ENCODING 182
SWIDTH 9360 0
DWIDTH 13 0
BBX 9 21 0 -5
BITMAP
0780
0780
0780
0780
0780
0780
0780
FF80
FF80
0780
FF80
FF80
0780
0780
0780
0780
0780
0780
0780
0780
0780
ENDCHAR

STARTCHAR char183
ENCODING 183
SWIDTH 9360 0
DWIDTH 13 0
BBX 9 13 0 -5
BITMAP
FF80
FF80
0D80
0D80
0D80
0D80
0D80
0D80
0D80
0D80
0D80
0D80
0D80
ENDCHAR

STARTCHAR char184
ENCODING 184
SWIDTH 9360 0
DWIDTH 13 0
BBX 8 14 0 -5
BITMAP
FF
FF
03
FF
FF
03
03
03
03
03
03
03
03
03
ENDCHAR

STARTCHAR char185
ENCODING 185
SWIDTH 9360 0
DWIDTH 13 0
BBX 9 21 0 -5
BITMAP
0D80
0D80
0D80
0D80
0D80
0D80
0D80
FD80
FD80
0180
FD80
FD80
0D80
0D80
0D80
0D80
0D80
0D80
0D80
0D80
0D80
ENDCHAR

STARTCHAR char186
ENCODING 186
SWIDTH 9360 0
DWIDTH 13 0
BBX 5 21 4 -5
BITMAP
D8
D8
D8
D8
D8
D8
D8
D8
D8
D8
D8
D8
D8
D8
D8
D8
D8
D8
D8
D8
D8
ENDCHAR

STARTCHAR char187
ENCODING 187
SWIDTH 9360 0
DWIDTH 13 0
BBX 9 14 0 -5
BITMAP
FF80
FF80
0180
FD80
FD80
0D80
0D80
0D80
0D80
0D80
0D80
0D80
0D80
0D80
ENDCHAR

STARTCHAR char188
ENCODING 188
SWIDTH 9360 0
DWIDTH 13 0
BBX 9 12 0 4
BITMAP
0D80
0D80
0D80
0D80
0D80
0D80
0D80
FD80
FD80
0180
FF80
FF80
ENDCHAR

STARTCHAR char189
ENCODING 189
SWIDTH 9360 0
DWIDTH 13 0
BBX 9 10 0 6
BITMAP
0D80
0D80
0D80
0D80
0D80
0D80
0D80
0D80
FD80
FF80
ENDCHAR

STARTCHAR char190
ENCODING 190
SWIDTH 9360 0
DWIDTH 13 0
BBX 8 12 0 4
BITMAP
03
03
03
03
03
03
03
FF
FF
03
FF
FF
ENDCHAR

STARTCHAR char191
ENCODING 191
SWIDTH 9360 0
DWIDTH 13 0
BBX 8 13 0 -5
BITMAP
FF
FF
03
03
03
03
03
03
03
03
03
03
03
ENDCHAR

STARTCHAR char192
ENCODING 192
SWIDTH 9360 0
DWIDTH 13 0
BBX 7 10 6 6
BITMAP
C0
C0
C0
C0
C0
C0
C0
C0
FE
FE
ENDCHAR

STARTCHAR char193
ENCODING 193
SWIDTH 9360 0
DWIDTH 13 0
BBX 13 10 0 6
BITMAP
0300
0300
0300
0300
0300
0300
0300
0300
FFF8
FFF8
ENDCHAR

STARTCHAR char194
ENCODING 194
SWIDTH 9360 0
DWIDTH 13 0
BBX 13 13 0 -5
BITMAP
FFF8
FFF8
0300
0300
0300
0300
0300
0300
0300
0300
0300
0300
0300
ENDCHAR

STARTCHAR char195
ENCODING 195
SWIDTH 9360 0
DWIDTH 13 0
BBX 7 21 6 -5
BITMAP
C0
C0
C0
C0
C0
C0
C0
C0
FE
FE
C0
C0
C0
C0
C0
C0
C0
C0
C0
C0
C0
ENDCHAR

STARTCHAR char196
ENCODING 196
SWIDTH 9360 0
DWIDTH 13 0
BBX 13 2 0 6
BITMAP
FFF8
FFF8
ENDCHAR

STARTCHAR char197
ENCODING 197
SWIDTH 9360 0
DWIDTH 13 0
BBX 13 21 0 -5
BITMAP
0300
0300
0300
0300
0300
0300
0300
0300
FFF8
FFF8
0300
0300
0300
0300
0300
0300
0300
0300
0300
0300
0300
ENDCHAR

STARTCHAR char198
ENCODING 198
SWIDTH 9360 0
DWIDTH 13 0
BBX 7 21 6 -5
BITMAP
C0
C0
C0
C0
C0
C0
C0
FE
FE
C0
FE
FE
C0
C0
C0
C0
C0
C0
C0
C0
C0
ENDCHAR

STARTCHAR char199
ENCODING 199
SWIDTH 9360 0
DWIDTH 13 0
BBX 9 21 4 -5
BITMAP
D800
D800
D800
D800
D800
D800
D800
D800
DF80
DF80
D800
D800
D800
D800
D800
D800
D800
D800
D800
D800
D800
ENDCHAR

STARTCHAR char200
ENCODING 200
SWIDTH 9360 0
DWIDTH 13 0
BBX 9 12 4 4
BITMAP
D800
D800
D800
D800
D800
D800
D800
DF80
DF80
C000
FF80
FF80
ENDCHAR

STARTCHAR char201
ENCODING 201
SWIDTH 9360 0
DWIDTH 13 0
BBX 8 14 5 -5
BITMAP
FF
FF
C0
DF
DF
D8
D8
D8
D8
D8
D8
D8
D8
D8
ENDCHAR

STARTCHAR char202
ENCODING 202
SWIDTH 9360 0
DWIDTH 13 0
BBX 13 12 0 4
BITMAP
0D80
0D80
0D80
0D80
0D80
0D80
0D80
FDF8
FDF8
0000
FFF8
FFF8
ENDCHAR

STARTCHAR char203
ENCODING 203
SWIDTH 9360 0
DWIDTH 13 0
BBX 13 14 0 -5
BITMAP
FFF8
FFF8
0000
FDF8
FDF8
0D80
0D80
0D80
0D80
0D80
0D80
0D80
0D80
0D80
ENDCHAR

STARTCHAR char204
ENCODING 204
SWIDTH 9360 0
DWIDTH 13 0
BBX 9 21 4 -5
BITMAP
D800
D800
D800
D800
D800
D800
D800
DF80
DF80
C000
DF80
DF80
D800
D800
D800
D800
D800
D800
D800
D800
D800
ENDCHAR

STARTCHAR char205
ENCODING 205
SWIDTH 9360 0
DWIDTH 13 0
BBX 13 5 0 4
BITMAP
FFF8
FFF8
0000
FFF8
FFF8
ENDCHAR

STARTCHAR char206
ENCODING 206
SWIDTH 9360 0
DWIDTH 13 0
BBX 13 21 0 -5
BITMAP
0D80
0D80
0D80
0D80
0D80
0D80
0D80
FDF8
FDF8
0000
FDF8
FDF8
0D80
0D80
0D80
0D80
0D80
0D80
0D80
0D80
0D80
ENDCHAR

STARTCHAR char207
ENCODING 207
SWIDTH 9360 0
DWIDTH 13 0
BBX 13 12 0 4
BITMAP
0300
0300
0300
0300
0300
0300
0300
FFF8
FFF8
0000
FFF8
FFF8
ENDCHAR

STARTCHAR char208
ENCODING 208
SWIDTH 9360 0
DWIDTH 13 0
BBX 13 11 0 5
BITMAP
0D80
0D80
0D80
0D80
0D80
0D80
0D80
0D80
0D80
FFF8
FFF8
ENDCHAR

STARTCHAR char209
ENCODING 209
SWIDTH 9360 0
DWIDTH 13 0
BBX 13 14 0 -5
BITMAP
FFF8
FFF8
0000
FFF8
FFF8
0300
0300
0300
0300
0300
0300
0300
0300
0300
ENDCHAR

STARTCHAR char210
ENCODING 210
SWIDTH 9360 0
DWIDTH 13 0
BBX 13 13 0 -5
BITMAP
FFF8
FFF8
0D80
0D80
0D80
0D80
0D80
0D80
0D80
0D80
0D80
0D80
0D80
ENDCHAR

STARTCHAR char211
ENCODING 211
SWIDTH 9360 0
DWIDTH 13 0
BBX 9 10 4 6
BITMAP
D800
D800
D800
D800
D800
D800
D800
D800
DF80
FF80
ENDCHAR

STARTCHAR char212
ENCODING 212
SWIDTH 9360 0
DWIDTH 13 0
BBX 7 12 6 4
BITMAP
C0
C0
C0
C0
C0
C0
C0
FE
FE
C0
FE
FE
ENDCHAR

STARTCHAR char213
ENCODING 213
SWIDTH 9360 0
DWIDTH 13 0
BBX 7 14 6 -5
BITMAP
FE
FE
C0
FE
FE
C0
C0
C0
C0
C0
C0
C0
C0
C0
ENDCHAR

STARTCHAR char214
ENCODING 214
SWIDTH 9360 0
DWIDTH 13 0
BBX 9 13 4 -5
BITMAP
FF80
FF80
D800
D800
D800
D800
D800
D800
D800
D800
D800
D800
D800
ENDCHAR

STARTCHAR char215
ENCODING 215
SWIDTH 9360 0
DWIDTH 13 0
BBX 13 21 0 -5
BITMAP
0D80
0D80
0D80
0D80
0D80
0D80
0D80
0D80
FDF8
FDF8
0D80
0D80
0D80
0D80
0D80
0D80
0D80
0D80
0D80
0D80
0D80
ENDCHAR

STARTCHAR char216
ENCODING 216
SWIDTH 9360 0
DWIDTH 13 0
BBX 13 21 0 -5
BITMAP
0300
0300
0300
0300
0300
0300
0300
FFF8
FFF8
0300
FFF8
FFF8
0300
0300
0300
0300
0300
0300
0300
0300
0300
ENDCHAR

STARTCHAR char217
ENCODING 217
SWIDTH 9360 0
DWIDTH 13 0
BBX 8 10 0 6
BITMAP
03
03
03
03
03
03
03
03
FF
FF
ENDCHAR

STARTCHAR char218
ENCODING 218
SWIDTH 9360 0
DWIDTH 13 0
BBX 7 13 6 -5
BITMAP
FE
FE
C0
C0
C0
C0
C0
C0
C0
C0
C0
C0
C0
ENDCHAR

STARTCHAR char219
ENCODING 219
SWIDTH 9360 0
DWIDTH 13 0
BBX 11 21 0 -5
BITMAP
FFE0
FFE0
FFE0
FFE0
FFE0
FFE0
FFE0
FFE0
FFE0
FFE0
FFE0
FFE0
FFE0
FFE0
FFE0
FFE0
FFE0
FFE0
FFE0
FFE0
FFE0
ENDCHAR

STARTCHAR char220
ENCODING 220
SWIDTH 9360 0
DWIDTH 13 0
BBX 11 11 0 -4
BITMAP
FFE0
FFE0
FFE0
FFE0
FFE0
FFE0
FFE0
FFE0
FFE0
FFE0
FFE0
ENDCHAR

STARTCHAR char221
ENCODING 221
SWIDTH 9360 0
DWIDTH 13 0
BBX 6 21 0 -5
BITMAP
FC
FC
FC
FC
FC
FC
FC
FC
FC
FC
FC
FC
FC
FC
FC
FC
FC
FC
FC
FC
FC
ENDCHAR

STARTCHAR char222
ENCODING 222
SWIDTH 9360 0
DWIDTH 13 0
BBX 6 21 5 -5
BITMAP
FC
FC
FC
FC
FC
FC
FC
FC
FC
FC
FC
FC
FC
FC
FC
FC
FC
FC
FC
FC
FC
ENDCHAR

STARTCHAR char223
ENCODING 223
SWIDTH 9360 0
DWIDTH 13 0
BBX 12 11 0 5
BITMAP
FFF0
FFF0
FFF0
FFF0
FFF0
FFF0
FFF0
FFF0
FFF0
FFF0
FFF0
ENDCHAR

STARTCHAR char224
ENCODING 224
SWIDTH 9360 0
DWIDTH 13 0
BBX 11 7 1 3
BITMAP
3CE0
7FC0
E780
E300
E780
7FC0
3CE0
ENDCHAR

STARTCHAR char225
ENCODING 225
SWIDTH 9360 0
DWIDTH 13 0
BBX 10 14 1 0
BITMAP
07C0
0FC0
1DC0
3D80
3B80
7F00
7F00
7380
F1C0
E1C0
FB80
FF00
E000
E000
ENDCHAR

STARTCHAR char226
ENCODING 226
SWIDTH 9360 0
DWIDTH 13 0
BBX 9 12 1 1
BITMAP
FF00
7380
7380
7180
7000
7000
7000
7000
7000
7000
7000
F800
ENDCHAR

STARTCHAR char227
ENCODING 227
SWIDTH 9360 0
DWIDTH 13 0
BBX 11 10 1 0
BITMAP
00E0
3FC0
FF80
FB80
3B80
3B80
3B80
3B80
3B80
7000
ENDCHAR

STARTCHAR char228
ENCODING 228
SWIDTH 9360 0
DWIDTH 13 0
BBX 9 13 1 1
BITMAP
FF80
E380
7180
3800
1C00
0E00
0600
0E00
1C00
3800
7380
FF80
FF80
ENDCHAR

STARTCHAR char229
ENCODING 229
SWIDTH 9360 0
DWIDTH 13 0
BBX 10 8 1 1
BITMAP
3FC0
7FC0
E700
E700
E700
E700
7E00
3C00
ENDCHAR

STARTCHAR char230
ENCODING 230
SWIDTH 9360 0
DWIDTH 13 0
BBX 9 8 1 1
BITMAP
3B80
3B80
3B80
3B80
3F00
3F00
F800
F000
ENDCHAR

STARTCHAR char231
ENCODING 231
SWIDTH 9360 0
DWIDTH 13 0
BBX 9 8 1 1
BITMAP
3F80
7F00
CC00
1C00
1C00
3C00
3C00
3C00
ENDCHAR

STARTCHAR char232
ENCODING 232
SWIDTH 9360 0
DWIDTH 13 0
BBX 9 13 2 1
BITMAP
FF00
1C00
1C00
3E00
7700
E380
E380
E380
7700
3E00
1C00
1C00
FF00
ENDCHAR

STARTCHAR char233
ENCODING 233
SWIDTH 9360 0
DWIDTH 13 0
BBX 9 10 2 1
BITMAP
3E00
7F00
6300
E380
FF80
FF80
E380
6300
7F00
3E00
ENDCHAR

STARTCHAR char234
ENCODING 234
SWIDTH 9360 0
DWIDTH 13 0
BBX 9 11 1 1
BITMAP
3E00
7700
E380
E380
E380
E380
E380
7700
3600
F780
F780
ENDCHAR

STARTCHAR char235
ENCODING 235
SWIDTH 9360 0
DWIDTH 13 0
BBX 9 11 2 1
BITMAP
1F00
3B80
3980
1C00
1C00
7E00
E700
E300
E700
7F00
3C00
ENDCHAR

STARTCHAR char236
ENCODING 236
SWIDTH 9360 0
DWIDTH 13 0
BBX 13 7 0 3
BITMAP
3870
6CD8
C788
C308
C788
6CD8
3870
ENDCHAR

STARTCHAR char237
ENCODING 237
SWIDTH 9360 0
DWIDTH 13 0
BBX 11 10 1 -1
BITMAP
3FE0
73C0
E3C0
E7C0
EFC0
FDC0
F9C0
7380
FF00
C000
ENDCHAR

STARTCHAR char238
ENCODING 238
SWIDTH 9360 0
DWIDTH 13 0
BBX 8 11 2 1
BITMAP
1F
7F
70
E0
FF
FF
FF
E0
70
7F
1F
ENDCHAR

STARTCHAR char239
ENCODING 239
SWIDTH 9360 0
DWIDTH 13 0
BBX 8 10 3 2
BITMAP
3C
7E
E7
E7
E7
E7
E7
E7
E7
E7
ENDCHAR

STARTCHAR char240
ENCODING 240
SWIDTH 9360 0
DWIDTH 13 0
BBX 9 10 2 1
BITMAP
FF80
FF80
0000
0000
FF80
FF80
0000
0000
FF80
FF80
ENDCHAR

STARTCHAR char241
ENCODING 241
SWIDTH 9360 0
DWIDTH 13 0
BBX 9 11 2 1
BITMAP
1C00
1C00
1C00
FF80
FF80
1C00
1C00
1C00
0000
FF80
FF80
ENDCHAR

STARTCHAR char242
ENCODING 242
SWIDTH 9360 0
DWIDTH 13 0
BBX 9 14 2 0
BITMAP
6000
7000
3800
1C00
0E00
0700
0E00
1C00
3800
7000
6000
0000
FF80
FF80
ENDCHAR

STARTCHAR char243
ENCODING 243
SWIDTH 9360 0
DWIDTH 13 0
BBX 9 14 2 0
BITMAP
0300
0700
0E00
1C00
3800
7000
3800
1C00
0E00
0700
0380
0000
FF80
FF80
ENDCHAR

STARTCHAR char244
ENCODING 244
SWIDTH 9360 0
DWIDTH 13 0
BBX 7 16 5 -5
BITMAP
7C
FE
EE
E6
E0
E0
E0
E0
E0
E0
E0
E0
E0
E0
E0
E0
ENDCHAR

STARTCHAR char245
ENCODING 245
SWIDTH 9360 0
DWIDTH 13 0
BBX 6 15 2 1
BITMAP
1C
1C
1C
1C
1C
1C
1C
1C
1C
1C
1C
FC
FC
7C
78
ENDCHAR

STARTCHAR char246
ENCODING 246
SWIDTH 9360 0
DWIDTH 13 0
BBX 9 8 2 1
BITMAP
1C00
1C00
0000
FF80
FF80
0000
1C00
1C00
ENDCHAR

STARTCHAR char247
ENCODING 247
SWIDTH 9360 0
DWIDTH 13 0
BBX 9 6 2 4
BITMAP
3980
FF80
C600
3980
7F80
E600
ENDCHAR

STARTCHAR char248
ENCODING 248
SWIDTH 9360 0
DWIDTH 13 0
BBX 7 6 3 7
BITMAP
7C
EE
C6
C6
EE
7C
ENDCHAR

STARTCHAR char249
ENCODING 249
SWIDTH 9360 0
DWIDTH 13 0
BBX 7 6 3 7
BITMAP
7C
FE
FE
FE
FE
7C
ENDCHAR

STARTCHAR char250
ENCODING 250
SWIDTH 9360 0
DWIDTH 13 0
BBX 7 6 3 4
BITMAP
7C
FE
FE
FE
FE
7C
ENDCHAR

STARTCHAR char251
ENCODING 251
SWIDTH 9360 0
DWIDTH 13 0
BBX 11 8 0 2
BITMAP
07E0
0600
0600
EC00
6C00
3C00
3800
1800
ENDCHAR

STARTCHAR char252
ENCODING 252
SWIDTH 9360 0
DWIDTH 13 0
BBX 7 5 2 10
BITMAP
FC
66
66
66
66
ENDCHAR

STARTCHAR char253
ENCODING 253
SWIDTH 9360 0
DWIDTH 13 0
BBX 6 7 2 8
BITMAP
78
CC
0C
38
60
C0
FC
ENDCHAR

STARTCHAR char254
ENCODING 254
SWIDTH 9360 0
DWIDTH 13 0
BBX 7 14 2 -1
BITMAP
FE
FE
FE
FE
FE
FE
FE
FE
FE
FE
FE
FE
FE
FE
ENDCHAR

STARTCHAR char255
ENCODING 255
SWIDTH 9360 0
DWIDTH 13 0
BBX 0 0 0 0
BITMAP
ENDCHAR
ENDFONT
